<svg width="271" height="24" viewBox="0 0 271 24" fill="none" xmlns="http://www.w3.org/2000/svg">
<rect x="133.333" y="10.0746" width="6.66665" height="6.66665" fill="white"/>
<rect x="133.333" y="16.7412" width="6.66665" height="6.66665" fill="white"/>
<rect x="133.334" y="3.40796" width="6.66665" height="6.66665" fill="white"/>
<path d="M66.6671 3.40796L70.0004 6.74128L73.3338 10.0746H66.6671V3.40796Z" fill="white"/>
<path d="M66.6671 23.408L70.0004 20.0746L73.3338 16.7413H66.6671V23.408Z" fill="white"/>
<rect x="60.0004" y="16.7412" width="6.66665" height="6.66665" fill="white"/>
<rect x="66.6671" y="10.0746" width="6.66665" height="6.66665" fill="white"/>
<rect x="53.3342" y="10.0746" width="6.66665" height="6.66665" fill="white"/>
<rect x="53.3342" y="16.7412" width="6.66665" height="6.66665" fill="white"/>
<rect x="53.3341" y="3.40796" width="6.66665" height="6.66665" fill="white"/>
<rect x="60.0004" y="3.40796" width="6.66665" height="6.66665" fill="white"/>
<rect x="206.666" y="3.40796" width="6.66665" height="6.66665" fill="white"/>
<path d="M213.332 3.40796L216.665 6.74128L219.999 10.0746H213.332V3.40796Z" fill="white"/>
<path d="M206.666 23.4078L210 20.0745L213.333 16.7412H206.666V23.4078Z" fill="white"/>
<path d="M206.666 3.40796L203.333 6.74128L200 10.0746H206.666V3.40796Z" fill="white"/>
<rect x="213.332" y="10.0746" width="6.66665" height="6.66665" fill="white"/>
<rect x="199.999" y="10.0746" width="6.66665" height="6.66665" fill="white"/>
<path d="M199.999 16.7412H206.666V23.4079L203.444 19.9634L199.999 16.7412Z" fill="white"/>
<rect x="213.332" y="16.7412" width="6.66665" height="6.66665" fill="white"/>
<rect x="113.333" y="3.40796" width="6.66665" height="6.66665" fill="white"/>
<path d="M126.667 3.40796L123.334 6.74128L120.001 10.0746L120.001 3.40796L126.667 3.40796Z" fill="white"/>
<path d="M106.666 23.4078L110 20.0745L113.333 16.7412L113.333 23.4078L106.666 23.4078Z" fill="white"/>
<path d="M113.333 16.7412L116.667 13.4079L120 10.0746L120 16.7412L113.333 16.7412Z" fill="white"/>
<rect x="106.666" y="3.40796" width="6.66665" height="6.66665" fill="white"/>
<rect x="113.333" y="16.7412" width="6.66665" height="6.66665" fill="white"/>
<rect x="119.999" y="16.7412" width="6.66665" height="6.66665" fill="white"/>
<rect x="86.6671" y="16.7412" width="6.66665" height="6.66665" fill="white"/>
<rect x="80" y="10.0748" width="6.66665" height="6.66665" fill="white"/>
<rect x="80" y="16.7412" width="6.66665" height="6.66665" fill="white"/>
<rect x="80" y="3.40796" width="6.66665" height="6.66665" fill="white"/>
<rect x="93.333" y="16.7412" width="6.66665" height="6.66665" fill="white"/>
<rect x="153.332" y="16.7412" width="6.66665" height="6.66665" fill="white"/>
<rect x="146.666" y="10.0746" width="6.66665" height="6.66665" fill="white"/>
<rect x="146.666" y="16.7412" width="6.66665" height="6.66665" fill="white"/>
<rect x="146.666" y="3.40796" width="6.66665" height="6.66665" fill="white"/>
<rect x="159.999" y="16.7412" width="6.66665" height="6.66665" fill="white"/>
<rect x="180" y="16.7412" width="6.66665" height="6.66665" fill="white"/>
<rect x="173.333" y="10.0748" width="6.66665" height="6.66665" fill="white"/>
<rect x="173.333" y="16.7412" width="6.66665" height="6.66665" fill="white"/>
<rect x="173.333" y="3.40796" width="6.66665" height="6.66665" fill="white"/>
<rect x="186.666" y="16.7412" width="6.66665" height="6.66665" fill="white"/>
<rect x="6.66711" y="10.0748" width="6.66665" height="6.66665" fill="white"/>
<rect x="13.333" y="10.0748" width="6.66665" height="6.66665" fill="white"/>
<rect y="10.0748" width="6.66665" height="6.66665" fill="white"/>
<rect y="16.7412" width="6.66665" height="6.66665" fill="white"/>
<rect y="3.40796" width="6.66665" height="6.66665" fill="white"/>
<rect x="13.333" y="16.7412" width="6.66665" height="6.66665" fill="white"/>
<rect x="13.333" y="3.40796" width="6.66665" height="6.66665" fill="white"/>
<rect x="133.333" y="10.0746" width="6.66665" height="6.66665" fill="white"/>
<rect x="133.333" y="16.7412" width="6.66665" height="6.66665" fill="white"/>
<rect x="133.334" y="3.40796" width="6.66665" height="6.66665" fill="white"/>
<path d="M66.6671 3.40796L70.0004 6.74128L73.3338 10.0746H66.6671V3.40796Z" fill="white"/>
<path d="M66.6671 23.408L70.0004 20.0746L73.3338 16.7413H66.6671V23.408Z" fill="white"/>
<rect x="60.0004" y="16.7412" width="6.66665" height="6.66665" fill="white"/>
<rect x="66.6671" y="10.0746" width="6.66665" height="6.66665" fill="white"/>
<rect x="53.3342" y="10.0746" width="6.66665" height="6.66665" fill="white"/>
<rect x="53.3342" y="16.7412" width="6.66665" height="6.66665" fill="white"/>
<rect x="53.3341" y="3.40796" width="6.66665" height="6.66665" fill="white"/>
<rect x="60.0004" y="3.40796" width="6.66665" height="6.66665" fill="white"/>
<rect x="206.666" y="3.40796" width="6.66665" height="6.66665" fill="white"/>
<path d="M213.332 3.40796L216.665 6.74128L219.999 10.0746H213.332V3.40796Z" fill="white"/>
<path d="M206.666 23.4078L210 20.0745L213.333 16.7412H206.666V23.4078Z" fill="white"/>
<path d="M206.666 3.40796L203.333 6.74128L200 10.0746H206.666V3.40796Z" fill="white"/>
<rect x="213.332" y="10.0746" width="6.66665" height="6.66665" fill="white"/>
<rect x="199.999" y="10.0746" width="6.66665" height="6.66665" fill="white"/>
<path d="M199.999 16.7412H206.666V23.4079L203.444 19.9634L199.999 16.7412Z" fill="white"/>
<rect x="213.332" y="16.7412" width="6.66665" height="6.66665" fill="white"/>
<rect x="113.333" y="3.40796" width="6.66665" height="6.66665" fill="white"/>
<path d="M126.667 3.40796L123.334 6.74128L120.001 10.0746L120.001 3.40796L126.667 3.40796Z" fill="white"/>
<path d="M106.666 23.4078L110 20.0745L113.333 16.7412L113.333 23.4078L106.666 23.4078Z" fill="white"/>
<path d="M113.333 16.7412L116.667 13.4079L120 10.0746L120 16.7412L113.333 16.7412Z" fill="white"/>
<rect x="106.666" y="3.40796" width="6.66665" height="6.66665" fill="white"/>
<rect x="113.333" y="16.7412" width="6.66665" height="6.66665" fill="white"/>
<rect x="119.999" y="16.7412" width="6.66665" height="6.66665" fill="white"/>
<rect x="86.6671" y="16.7412" width="6.66665" height="6.66665" fill="white"/>
<rect x="80" y="10.0748" width="6.66665" height="6.66665" fill="white"/>
<rect x="80" y="16.7412" width="6.66665" height="6.66665" fill="white"/>
<rect x="80" y="3.40796" width="6.66665" height="6.66665" fill="white"/>
<rect x="93.333" y="16.7412" width="6.66665" height="6.66665" fill="white"/>
<rect x="153.332" y="16.7412" width="6.66665" height="6.66665" fill="white"/>
<rect x="146.666" y="10.0746" width="6.66665" height="6.66665" fill="white"/>
<rect x="146.666" y="16.7412" width="6.66665" height="6.66665" fill="white"/>
<rect x="146.666" y="3.40796" width="6.66665" height="6.66665" fill="white"/>
<rect x="159.999" y="16.7412" width="6.66665" height="6.66665" fill="white"/>
<rect x="180" y="16.7412" width="6.66665" height="6.66665" fill="white"/>
<rect x="173.333" y="10.0748" width="6.66665" height="6.66665" fill="white"/>
<rect x="173.333" y="16.7412" width="6.66665" height="6.66665" fill="white"/>
<rect x="173.333" y="3.40796" width="6.66665" height="6.66665" fill="white"/>
<rect x="186.666" y="16.7412" width="6.66665" height="6.66665" fill="white"/>
<rect x="6.66711" y="10.0748" width="6.66665" height="6.66665" fill="white"/>
<rect x="13.333" y="10.0748" width="6.66665" height="6.66665" fill="white"/>
<rect y="10.0748" width="6.66665" height="6.66665" fill="white"/>
<rect y="16.7412" width="6.66665" height="6.66665" fill="white"/>
<rect y="3.40796" width="6.66665" height="6.66665" fill="white"/>
<rect x="13.333" y="16.7412" width="6.66665" height="6.66665" fill="white"/>
<rect x="13.333" y="3.40796" width="6.66665" height="6.66665" fill="white"/>
<path d="M40.0009 3.40796L43.3342 6.74128L46.6675 10.0746H40.0009V3.40796Z" fill="white"/>
<path d="M33.334 3.40796L30.0007 6.74128L26.6673 10.0746H33.334V3.40796Z" fill="white"/>
<path d="M33.334 23.408L30.0007 20.0746L26.6673 16.7413H33.334V23.408Z" fill="white"/>
<path d="M40.0009 23.4078L43.3342 20.0745L46.6675 16.7412H40.0009V23.4078Z" fill="white"/>
<rect x="33.3333" y="3.40796" width="6.66665" height="6.66665" fill="white"/>
<rect x="33.3333" y="16.7412" width="6.66665" height="6.66665" fill="white"/>
<rect x="39.9991" y="10.0746" width="6.66665" height="6.66665" fill="white"/>
<rect x="26.6661" y="10.0746" width="6.66665" height="6.66665" fill="white"/>
<rect x="33.3333" y="3.40796" width="6.66665" height="6.66665" fill="white"/>
<rect x="33.3333" y="16.7412" width="6.66665" height="6.66665" fill="white"/>
<rect x="39.9991" y="10.0746" width="6.66665" height="6.66665" fill="white"/>
<rect x="26.6661" y="10.0746" width="6.66665" height="6.66665" fill="white"/>
<rect x="26.6661" y="16.7412" width="6.66665" height="6.66665" fill="white"/>
<rect x="26.6661" y="3.40796" width="6.66665" height="6.66665" fill="white"/>
<rect x="39.9991" y="16.7412" width="6.66665" height="6.66665" fill="white"/>
<rect x="39.9991" y="3.40796" width="6.66665" height="6.66665" fill="white"/>
<path d="M241.84 0.208H239.872L236.48 5.808L233.104 0.208H231.12V11.408H232.96V3.408L236.368 9.056H236.592L240 3.424V11.408H241.84V0.208Z" fill="#05EDAC"/>
<path d="M244.825 2.208C245.433 2.208 245.929 1.696 245.929 1.104C245.929 0.496 245.433 0 244.825 0C244.217 0 243.721 0.496 243.721 1.104C243.721 1.696 244.217 2.208 244.825 2.208ZM243.961 11.408H245.689V3.408H243.961V11.408Z" fill="#05EDAC"/>
<path d="M251.904 3.2C250.816 3.2 249.952 3.6 249.424 4.432V3.408H247.696V11.408H249.424V7.12C249.424 5.488 250.32 4.816 251.456 4.816C252.544 4.816 253.248 5.456 253.248 6.672V11.408H254.976V6.496C254.976 4.416 253.696 3.2 251.904 3.2Z" fill="#05EDAC"/>
<path d="M258.196 8.144H264.564C264.596 7.92 264.628 7.664 264.628 7.424C264.628 5.12 262.996 3.2 260.612 3.2C258.1 3.2 256.388 5.04 256.388 7.408C256.388 9.808 258.1 11.616 260.74 11.616C262.308 11.616 263.508 10.96 264.244 9.872L262.82 9.04C262.436 9.6 261.716 10.032 260.756 10.032C259.476 10.032 258.468 9.392 258.196 8.144ZM258.18 6.736C258.42 5.536 259.3 4.768 260.596 4.768C261.636 4.768 262.644 5.36 262.884 6.736H258.18Z" fill="#05EDAC"/>
<path d="M267.877 4.752V3.408H266.149V11.408H267.877V7.376C267.877 5.584 269.205 5.056 270.341 5.136V3.264C269.333 3.264 268.357 3.664 267.877 4.752Z" fill="#05EDAC"/>
</svg>
