<svg width="25" height="25" viewBox="0 0 25 25" fill="none" xmlns="http://www.w3.org/2000/svg">
<path d="M12.5007 1.302C10.2859 1.302 8.12091 1.95875 6.27943 3.18919C4.43794 4.41963 3.00267 6.16851 2.15513 8.21466C1.30759 10.2608 1.08583 12.5123 1.5179 14.6845C1.94998 16.8567 3.01648 18.852 4.58253 20.418C6.14859 21.9841 8.14387 23.0506 10.3161 23.4827C12.4882 23.9147 14.7398 23.693 16.7859 22.8454C18.8321 21.9979 20.5809 20.5626 21.8114 18.7211C23.0418 16.8797 23.6986 14.7147 23.6986 12.4999C23.6953 9.53106 22.5144 6.68475 20.4151 4.58545C18.3158 2.48615 15.4695 1.30531 12.5007 1.302ZM5.99024 12.4999C5.99024 12.7071 5.90793 12.9058 5.76142 13.0523C5.6149 13.1989 5.41619 13.2812 5.20899 13.2812C5.00179 13.2812 4.80307 13.1989 4.65656 13.0523C4.51005 12.9058 4.42774 12.7071 4.42774 12.4999C4.43022 10.3596 5.28155 8.30767 6.79498 6.79424C8.30841 5.28082 10.3603 4.42948 12.5007 4.427C13.5706 4.42408 14.6302 4.63664 15.6163 5.052C15.7133 5.09008 15.8017 5.14718 15.8763 5.21994C15.9509 5.2927 16.0102 5.37964 16.0507 5.47566C16.0912 5.57168 16.112 5.67483 16.1121 5.77904C16.1121 5.88325 16.0913 5.9864 16.0508 6.08244C16.0104 6.17848 15.9511 6.26546 15.8766 6.33825C15.802 6.41105 15.7136 6.46819 15.6166 6.50631C15.5196 6.54444 15.416 6.56278 15.3118 6.56025C15.2077 6.55772 15.105 6.53437 15.01 6.49158C14.2157 6.15781 13.3623 5.98707 12.5007 5.9895C10.7746 5.99143 9.11975 6.67797 7.89923 7.89849C6.67871 9.11901 5.99217 10.7738 5.99024 12.4999ZM18.3444 7.74575L13.9204 13.9385C14.0597 14.2459 14.0957 14.5902 14.023 14.9198C13.9503 15.2495 13.7728 15.5467 13.5171 15.767C13.2614 15.9873 12.9412 16.1189 12.6044 16.1421C12.2677 16.1652 11.9325 16.0787 11.649 15.8955C11.3655 15.7123 11.149 15.4422 11.0318 15.1256C10.9147 14.809 10.9032 14.4631 10.9991 14.1394C11.0949 13.8158 11.293 13.5319 11.5637 13.3302C11.8344 13.1286 12.1631 13.02 12.5007 13.0208C12.5507 13.0208 12.5975 13.0312 12.6465 13.0353L17.0736 6.83742C17.1321 6.75132 17.2073 6.6778 17.2947 6.62118C17.3821 6.56456 17.4799 6.52597 17.5824 6.50769C17.6849 6.48941 17.79 6.49181 17.8916 6.51474C17.9932 6.53767 18.0891 6.58067 18.1738 6.64122C18.2586 6.70177 18.3303 6.77864 18.3849 6.86731C18.4395 6.95599 18.4758 7.05468 18.4916 7.15758C18.5075 7.26048 18.5027 7.36553 18.4774 7.46653C18.4521 7.56754 18.4069 7.66247 18.3444 7.74575ZM19.7923 13.2812C19.5851 13.2812 19.3864 13.1989 19.2399 13.0523C19.0934 12.9058 19.0111 12.7071 19.0111 12.4999C19.014 11.9528 18.9439 11.4077 18.8027 10.8791C18.7762 10.78 18.7694 10.6766 18.7829 10.5749C18.7963 10.4732 18.8296 10.3751 18.8809 10.2863C18.9845 10.1068 19.1552 9.97591 19.3553 9.92231C19.5555 9.86872 19.7687 9.89683 19.9482 10.0005C20.037 10.0518 20.1149 10.1201 20.1773 10.2015C20.2398 10.2829 20.2856 10.3758 20.3121 10.4749C20.4876 11.1355 20.5756 11.8164 20.5736 12.4999C20.5736 12.7071 20.4913 12.9058 20.3448 13.0523C20.1982 13.1989 19.9995 13.2812 19.7923 13.2812Z" fill="#05EDAC"/>
</svg>
