<svg width="20" height="20" viewBox="0 0 20 20" fill="none" xmlns="http://www.w3.org/2000/svg">
<path d="M19.2174 5.50996C19.6488 5.50996 19.9986 5.16025 19.9986 4.72883V3.90864C19.9986 1.75341 18.2451 0 16.0899 0C16.0899 0 3.84529 0.00183567 3.8151 0.00538982C2.78443 0.0414001 1.79438 0.483678 1.08074 1.23146C0.349243 1.99791 -0.0321071 2.99479 0.00378598 4.04366C0.00230182 4.06354 0.00152069 15.3102 0.00152069 15.3102C0.00152069 17.8962 2.10535 20 4.69129 20H16.0899C18.2451 20 19.9986 18.2466 19.9986 16.0914V10.1607C19.9986 8.00545 18.2451 6.25204 16.0899 6.25204H3.90715C2.653 6.25204 1.6248 5.2718 1.56633 4.02042C1.53661 3.38411 1.76552 2.7767 2.21084 2.31005C2.66261 1.83668 3.29709 1.56524 3.95152 1.56524C3.9746 1.56524 16.0898 1.56227 16.0898 1.56227C17.3836 1.56227 18.4362 2.61485 18.4362 3.90864V4.72883C18.4363 5.16025 18.786 5.50996 19.2174 5.50996ZM3.90715 7.81431H16.0899C17.3837 7.81431 18.4362 8.86689 18.4362 10.1607V16.0914C18.4362 17.3852 17.3837 18.4377 16.0899 18.4377H4.69129C2.96678 18.4377 1.56379 17.0347 1.56379 15.3102V7.03634C2.21713 7.52572 3.02892 7.81431 3.90715 7.81431ZM16.874 13.126C16.874 13.6653 16.4369 14.1024 15.8976 14.1024C14.6024 14.051 14.6028 12.2008 15.8976 12.1496C16.4369 12.1496 16.874 12.5868 16.874 13.126Z" fill="white"/>
</svg>
