<svg width="25" height="25" viewBox="0 0 25 25" fill="none" xmlns="http://www.w3.org/2000/svg">
<path d="M9.37565 12.7604H7.29232C5.70437 12.7623 4.18202 13.394 3.05917 14.5168C1.93633 15.6397 1.30466 17.162 1.30273 18.75C1.30329 19.5095 1.60527 20.2378 2.14236 20.7749C2.67945 21.312 3.40775 21.614 4.16732 21.6145H12.5007C13.2602 21.614 13.9885 21.312 14.5256 20.7749C15.0627 20.2378 15.3647 19.5095 15.3652 18.75C15.3633 17.162 14.7316 15.6397 13.6088 14.5168C12.4859 13.394 10.9636 12.7623 9.37565 12.7604Z" fill="white"/>
<path d="M8.33464 12.2396C11.0673 12.2396 13.2826 10.0243 13.2826 7.29167C13.2826 4.55901 11.0673 2.34375 8.33464 2.34375C5.60198 2.34375 3.38672 4.55901 3.38672 7.29167C3.38672 10.0243 5.60198 12.2396 8.33464 12.2396Z" fill="white"/>
<path d="M23.6979 16.6667C23.6982 17.043 23.6243 17.4156 23.4804 17.7632C23.3366 18.1109 23.1256 18.4268 22.8595 18.6929C22.5935 18.9589 22.2776 19.1699 21.9299 19.3138C21.5822 19.4576 21.2096 19.5316 20.8333 19.5313H16.3229C16.3775 19.2744 16.4054 19.0126 16.4062 18.75C16.407 17.6144 16.1314 16.4956 15.6033 15.4902C15.0752 14.4849 14.3105 13.6231 13.375 12.9792C14.2771 12.164 15.4508 11.7146 16.6667 11.7188H18.75C20.0619 11.7199 21.3198 12.2415 22.2475 13.1692C23.1752 14.0969 23.6968 15.3548 23.6979 16.6667Z" fill="white"/>
<path d="M21.6152 7.29171C21.6142 8.19111 21.3031 9.06264 20.7343 9.75938C20.1656 10.4561 19.374 10.9354 18.493 11.1165C17.612 11.2976 16.6955 11.1694 15.8981 10.7535C15.1006 10.3376 14.4709 9.65944 14.1152 8.83337C14.2536 8.33118 14.3237 7.81262 14.3236 7.29171C14.3237 6.77422 14.2536 6.2591 14.1152 5.76046C14.4681 4.93209 15.0963 4.25106 15.8936 3.83261C16.6909 3.41416 17.6082 3.28398 18.4904 3.46409C19.3726 3.64421 20.1655 4.12356 20.7349 4.82104C21.3043 5.51853 21.6153 6.39131 21.6152 7.29171Z" fill="white"/>
</svg>
